<mxfile host="app.diagrams.net" agent="Mozilla/5.0 (Windows NT 10.0; Win64; x64) AppleWebKit/537.36 (KHTML, like Gecko) Chrome/136.0.0.0 Safari/537.36 Edg/136.0.0.0" version="27.0.3">
  <diagram name="Trang-1" id="5HDWBBldh2wSmYefomGx">
    <mxGraphModel dx="1420" dy="809" grid="1" gridSize="10" guides="1" tooltips="1" connect="1" arrows="1" fold="1" page="1" pageScale="1" pageWidth="1654" pageHeight="2336" math="0" shadow="0">
      <root>
        <mxCell id="0" />
        <mxCell id="1" parent="0" />
        <mxCell id="6KcAHHXzVV36OPZMWr6k-5" style="edgeStyle=orthogonalEdgeStyle;rounded=0;orthogonalLoop=1;jettySize=auto;html=1;entryX=0;entryY=0.5;entryDx=0;entryDy=0;" edge="1" parent="1" source="6KcAHHXzVV36OPZMWr6k-1" target="6KcAHHXzVV36OPZMWr6k-2">
          <mxGeometry relative="1" as="geometry" />
        </mxCell>
        <mxCell id="6KcAHHXzVV36OPZMWr6k-1" value="Create Onwer Acount&amp;nbsp;" style="points=[[0,0],[0.25,0],[0.5,0],[0.75,0],[1,0],[1,0.25],[1,0.5],[1,0.75],[1,1],[0.75,1],[0.5,1],[0.25,1],[0,1],[0,0.75],[0,0.5],[0,0.25]];outlineConnect=0;gradientColor=none;html=1;whiteSpace=wrap;fontSize=12;fontStyle=0;container=1;pointerEvents=0;collapsible=0;recursiveResize=0;shape=mxgraph.aws4.group;grIcon=mxgraph.aws4.group_account;strokeColor=#CD2264;fillColor=none;verticalAlign=top;align=left;spacingLeft=30;fontColor=#CD2264;dashed=0;" vertex="1" parent="1">
          <mxGeometry x="20" y="540" width="130" height="130" as="geometry" />
        </mxCell>
        <mxCell id="6KcAHHXzVV36OPZMWr6k-6" style="edgeStyle=orthogonalEdgeStyle;rounded=0;orthogonalLoop=1;jettySize=auto;html=1;exitX=1;exitY=0.5;exitDx=0;exitDy=0;entryX=0;entryY=0.5;entryDx=0;entryDy=0;" edge="1" parent="1" source="6KcAHHXzVV36OPZMWr6k-2" target="6KcAHHXzVV36OPZMWr6k-3">
          <mxGeometry relative="1" as="geometry" />
        </mxCell>
        <mxCell id="6KcAHHXzVV36OPZMWr6k-2" value="Frontend" style="rounded=1;whiteSpace=wrap;html=1;" vertex="1" parent="1">
          <mxGeometry x="200" y="575" width="120" height="60" as="geometry" />
        </mxCell>
        <mxCell id="6KcAHHXzVV36OPZMWr6k-10" style="edgeStyle=orthogonalEdgeStyle;rounded=0;orthogonalLoop=1;jettySize=auto;html=1;exitX=1;exitY=0.5;exitDx=0;exitDy=0;entryX=0;entryY=0.5;entryDx=0;entryDy=0;" edge="1" parent="1" source="6KcAHHXzVV36OPZMWr6k-3" target="6KcAHHXzVV36OPZMWr6k-7">
          <mxGeometry relative="1" as="geometry">
            <Array as="points">
              <mxPoint x="540" y="605" />
              <mxPoint x="540" y="470" />
              <mxPoint x="660" y="470" />
            </Array>
          </mxGeometry>
        </mxCell>
        <mxCell id="6KcAHHXzVV36OPZMWr6k-11" style="edgeStyle=orthogonalEdgeStyle;rounded=0;orthogonalLoop=1;jettySize=auto;html=1;exitX=1;exitY=0.5;exitDx=0;exitDy=0;entryX=0;entryY=0.5;entryDx=0;entryDy=0;" edge="1" parent="1" source="6KcAHHXzVV36OPZMWr6k-3" target="6KcAHHXzVV36OPZMWr6k-8">
          <mxGeometry relative="1" as="geometry">
            <Array as="points">
              <mxPoint x="540" y="605" />
              <mxPoint x="540" y="690" />
            </Array>
          </mxGeometry>
        </mxCell>
        <mxCell id="6KcAHHXzVV36OPZMWr6k-3" value="API GW&amp;nbsp;" style="rounded=1;whiteSpace=wrap;html=1;" vertex="1" parent="1">
          <mxGeometry x="370" y="575" width="120" height="60" as="geometry" />
        </mxCell>
        <mxCell id="6KcAHHXzVV36OPZMWr6k-34" style="edgeStyle=orthogonalEdgeStyle;rounded=0;orthogonalLoop=1;jettySize=auto;html=1;" edge="1" parent="1" source="6KcAHHXzVV36OPZMWr6k-7" target="6KcAHHXzVV36OPZMWr6k-32">
          <mxGeometry relative="1" as="geometry" />
        </mxCell>
        <mxCell id="6KcAHHXzVV36OPZMWr6k-7" value="Login-sv" style="shape=parallelogram;perimeter=parallelogramPerimeter;whiteSpace=wrap;html=1;fixedSize=1;" vertex="1" parent="1">
          <mxGeometry x="680" y="400" width="120" height="60" as="geometry" />
        </mxCell>
        <mxCell id="6KcAHHXzVV36OPZMWr6k-18" style="edgeStyle=orthogonalEdgeStyle;rounded=0;orthogonalLoop=1;jettySize=auto;html=1;entryX=0.16;entryY=0.55;entryDx=0;entryDy=0;entryPerimeter=0;" edge="1" parent="1" source="6KcAHHXzVV36OPZMWr6k-8" target="6KcAHHXzVV36OPZMWr6k-19">
          <mxGeometry relative="1" as="geometry">
            <mxPoint x="759.9999999999998" y="829.9999999999998" as="targetPoint" />
            <Array as="points">
              <mxPoint x="690" y="830" />
              <mxPoint x="768" y="830" />
              <mxPoint x="768" y="834" />
            </Array>
          </mxGeometry>
        </mxCell>
        <mxCell id="6KcAHHXzVV36OPZMWr6k-30" value="Public Event" style="edgeLabel;html=1;align=center;verticalAlign=middle;resizable=0;points=[];" vertex="1" connectable="0" parent="6KcAHHXzVV36OPZMWr6k-18">
          <mxGeometry x="-0.2753" y="-3" relative="1" as="geometry">
            <mxPoint as="offset" />
          </mxGeometry>
        </mxCell>
        <mxCell id="6KcAHHXzVV36OPZMWr6k-8" value="Auth-sv" style="shape=parallelogram;perimeter=parallelogramPerimeter;whiteSpace=wrap;html=1;fixedSize=1;" vertex="1" parent="1">
          <mxGeometry x="630" y="660" width="120" height="60" as="geometry" />
        </mxCell>
        <mxCell id="6KcAHHXzVV36OPZMWr6k-13" value="DB&amp;nbsp;" style="shape=cylinder3;whiteSpace=wrap;html=1;boundedLbl=1;backgroundOutline=1;size=15;" vertex="1" parent="1">
          <mxGeometry x="900" y="565" width="60" height="80" as="geometry" />
        </mxCell>
        <mxCell id="6KcAHHXzVV36OPZMWr6k-15" style="edgeStyle=orthogonalEdgeStyle;rounded=0;orthogonalLoop=1;jettySize=auto;html=1;entryX=0;entryY=0.5;entryDx=0;entryDy=0;entryPerimeter=0;" edge="1" parent="1" source="6KcAHHXzVV36OPZMWr6k-8" target="6KcAHHXzVV36OPZMWr6k-13">
          <mxGeometry relative="1" as="geometry" />
        </mxCell>
        <mxCell id="6KcAHHXzVV36OPZMWr6k-31" value="CRUD&lt;br&gt;account" style="edgeLabel;html=1;align=center;verticalAlign=middle;resizable=0;points=[];" vertex="1" connectable="0" parent="6KcAHHXzVV36OPZMWr6k-15">
          <mxGeometry x="0.4023" relative="1" as="geometry">
            <mxPoint as="offset" />
          </mxGeometry>
        </mxCell>
        <mxCell id="6KcAHHXzVV36OPZMWr6k-23" style="edgeStyle=orthogonalEdgeStyle;rounded=0;orthogonalLoop=1;jettySize=auto;html=1;" edge="1" parent="1" source="6KcAHHXzVV36OPZMWr6k-19" target="6KcAHHXzVV36OPZMWr6k-22">
          <mxGeometry relative="1" as="geometry" />
        </mxCell>
        <mxCell id="6KcAHHXzVV36OPZMWr6k-19" value="Rabbit MQ" style="ellipse;shape=cloud;whiteSpace=wrap;html=1;" vertex="1" parent="1">
          <mxGeometry x="760" y="790" width="120" height="80" as="geometry" />
        </mxCell>
        <mxCell id="6KcAHHXzVV36OPZMWr6k-26" style="edgeStyle=orthogonalEdgeStyle;rounded=0;orthogonalLoop=1;jettySize=auto;html=1;" edge="1" parent="1" source="6KcAHHXzVV36OPZMWr6k-22" target="6KcAHHXzVV36OPZMWr6k-25">
          <mxGeometry relative="1" as="geometry" />
        </mxCell>
        <mxCell id="6KcAHHXzVV36OPZMWr6k-22" value="Notification - sv" style="shape=parallelogram;perimeter=parallelogramPerimeter;whiteSpace=wrap;html=1;fixedSize=1;" vertex="1" parent="1">
          <mxGeometry x="990" y="800" width="120" height="60" as="geometry" />
        </mxCell>
        <mxCell id="6KcAHHXzVV36OPZMWr6k-25" value="SMTP Gmail" style="ellipse;shape=cloud;whiteSpace=wrap;html=1;" vertex="1" parent="1">
          <mxGeometry x="1140" y="650" width="120" height="80" as="geometry" />
        </mxCell>
        <mxCell id="6KcAHHXzVV36OPZMWr6k-27" value="" style="sketch=0;pointerEvents=1;shadow=0;dashed=0;html=1;strokeColor=none;labelPosition=center;verticalLabelPosition=bottom;verticalAlign=top;align=center;fillColor=#505050;shape=mxgraph.mscae.intune.account_portal" vertex="1" parent="1">
          <mxGeometry x="1420" y="670" width="43" height="50" as="geometry" />
        </mxCell>
        <mxCell id="6KcAHHXzVV36OPZMWr6k-28" style="edgeStyle=orthogonalEdgeStyle;rounded=0;orthogonalLoop=1;jettySize=auto;html=1;entryX=0.25;entryY=0.23;entryDx=0;entryDy=0;entryPerimeter=0;" edge="1" parent="1" source="6KcAHHXzVV36OPZMWr6k-25" target="6KcAHHXzVV36OPZMWr6k-27">
          <mxGeometry relative="1" as="geometry">
            <Array as="points">
              <mxPoint x="1410" y="690" />
              <mxPoint x="1410" y="682" />
            </Array>
          </mxGeometry>
        </mxCell>
        <mxCell id="6KcAHHXzVV36OPZMWr6k-29" value="Send Mail to User" style="edgeLabel;html=1;align=center;verticalAlign=middle;resizable=0;points=[];" vertex="1" connectable="0" parent="6KcAHHXzVV36OPZMWr6k-28">
          <mxGeometry x="-0.1007" y="2" relative="1" as="geometry">
            <mxPoint as="offset" />
          </mxGeometry>
        </mxCell>
        <mxCell id="6KcAHHXzVV36OPZMWr6k-32" value="Systemadmin-sv" style="shape=parallelogram;perimeter=parallelogramPerimeter;whiteSpace=wrap;html=1;fixedSize=1;" vertex="1" parent="1">
          <mxGeometry x="910" y="400" width="120" height="60" as="geometry" />
        </mxCell>
        <mxCell id="6KcAHHXzVV36OPZMWr6k-35" style="edgeStyle=orthogonalEdgeStyle;rounded=0;orthogonalLoop=1;jettySize=auto;html=1;entryX=0.66;entryY=0.006;entryDx=0;entryDy=0;entryPerimeter=0;" edge="1" parent="1" source="6KcAHHXzVV36OPZMWr6k-32" target="6KcAHHXzVV36OPZMWr6k-8">
          <mxGeometry relative="1" as="geometry">
            <Array as="points">
              <mxPoint x="970" y="540" />
              <mxPoint x="709" y="540" />
            </Array>
          </mxGeometry>
        </mxCell>
      </root>
    </mxGraphModel>
  </diagram>
</mxfile>
